<svg width="879" height="120" viewBox="0 0 879 120" xmlns="http://www.w3.org/2000/svg"><defs><linearGradient x1="66.552%" y1="8.321%" x2="-16.552%" y2="91.791%" id="a"><stop stop-color="#6051F2" offset="0%"/><stop stop-color="#7D8CF9" offset="100%"/></linearGradient><linearGradient x1="-35.217%" y1="50.007%" x2="137.263%" y2="50.007%" id="b"><stop stop-color="#6051F2" offset="0%"/><stop stop-color="#7D8CF9" offset="100%"/></linearGradient></defs><g fill="none"><path d="m118.682 82-9.45-17.635h-8.155V82H91V33.023h20.794a15.605 15.605 0 0 1 11.41 4.112c2.849 2.768 4.278 6.62 4.287 11.559a16.946 16.946 0 0 1-2.052 8.62 13.259 13.259 0 0 1-5.751 5.417L130 82h-11.318zm-17.697-26.571h9.554a6.686 6.686 0 0 0 4.823-1.82 6.422 6.422 0 0 0 1.856-4.915 6.622 6.622 0 0 0-1.856-5.048 6.723 6.723 0 0 0-4.836-1.766h-9.54v13.549zM139.946 30a6.05 6.05 0 0 1 4.276 1.693 5.802 5.802 0 0 1 1.777 4.17 5.548 5.548 0 0 1-1.751 4.132 5.88 5.88 0 0 1-4.302 1.77 5.742 5.742 0 0 1-4.247-1.716 5.611 5.611 0 0 1-1.696-4.187 5.633 5.633 0 0 1 1.806-4.052 5.79 5.79 0 0 1 4.137-1.81zm5.005 52h-10.01V47.275h10.01V82zm26.851-34.988c4.403-.175 8.663 1.621 11.686 4.925 3.095 3.552 4.709 8.216 4.493 12.984.213 4.768-1.4 9.431-4.493 12.984-3.023 3.304-7.283 5.1-11.686 4.926-4.09 0-7.22-1.232-9.375-3.668V99H153V47.614h8.92v3.587c2.065-2.85 5.35-4.19 9.882-4.19zm-1.493 8.325a7.364 7.364 0 0 0-5.714 2.356 9.182 9.182 0 0 0-2.168 6.425v1.593a9.127 9.127 0 0 0 2.168 6.425 8.047 8.047 0 0 0 11.557-.16 10.284 10.284 0 0 0 2.233-7.055 10.27 10.27 0 0 0-2.233-7.054c-1.478-1.716-3.618-2.667-5.843-2.597v.067zM225.92 67.52h-23.617a6.992 6.992 0 0 0 2.034 4.99 7.126 7.126 0 0 0 5.151 1.83c3.466 0 5.567-1.307 6.33-3.71l9.78.456c-.637 3.208-2.565 6.031-5.352 7.84a17.941 17.941 0 0 1-10.477 3.056c-4.775.214-9.43-1.501-12.872-4.742-3.265-3.162-4.897-7.408-4.897-12.738 0-5.33 1.619-9.59 4.857-12.777 3.379-3.19 7.948-4.89 12.645-4.703 4.476-.23 8.846 1.386 12.042 4.455 2.97 2.97 4.456 7.05 4.456 12.241l-.08 3.802zm-16.5-13.065a6.948 6.948 0 0 0-5.017 1.803 7.113 7.113 0 0 0-2.101 4.965h13.836a7.379 7.379 0 0 0-1.82-4.965 6.415 6.415 0 0 0-4.898-1.803zm52.104-19.81c2.93 2.337 4.7 5.912 4.824 9.746l-3.854.272c-.524-6.288-5.243-10.018-12.19-10.018-7.866 0-12.257 4.193-12.257 10.087a8.973 8.973 0 0 0 2.28 6.22 11.63 11.63 0 0 0 2.937 1.838 35.27 35.27 0 0 0 3.46 1.211l4.366 1.089c6.07 1.361 10.369 3.049 12.977 4.873 2.609 1.824 3.933 4.805 3.933 8.93 0 4.668-1.56 8.166-4.758 10.562-3.602 2.485-7.87 3.72-12.191 3.525-4.46.171-8.86-1.109-12.585-3.661-3.26-2.365-5.28-6.166-5.466-10.29l3.933-.273c.259 3.143 1.86 6 4.365 7.786a16.073 16.073 0 0 0 9.726 2.885c7.866 0 13.109-3.457 13.109-10.29.045-2.328-.826-4.575-2.412-6.22a10.693 10.693 0 0 0-3.199-1.838 25.817 25.817 0 0 0-3.775-1.28c-1.114-.34-2.74-.748-4.955-1.36-2.215-.613-3.788-1.008-5.02-1.362a26.74 26.74 0 0 1-4.182-1.62c-4.3-2.177-6.056-4.872-6.384-10.698-.096-3.74 1.406-7.333 4.103-9.814 2.805-2.64 6.79-3.934 11.994-3.934 4.03-.145 7.986 1.137 11.221 3.634zM277 31.016h19.141a22.934 22.934 0 0 1 17.19 6.84C317.776 42.425 320 48.608 320 56.502c0 7.893-2.291 14.076-6.778 18.646a23.163 23.163 0 0 1-17.19 6.84H277V31.016zm3.972 3.475v43.885h15.007a18.996 18.996 0 0 0 14.423-5.773c3.715-3.885 5.599-9.261 5.599-16.197s-1.817-12.312-5.53-16.197a18.74 18.74 0 0 0-14.357-5.773l-15.142.055zm60.349 19.619L364 82h-4.863l-20.372-24.843-5.904 6.372V82H329V33h3.861v24.817L356.001 33h4.981zm61.428-18c4.068 3.28 6.672 8.095 7.224 13.36l-3.999.408c-.432-4.379-2.587-8.39-5.971-11.113a18.558 18.558 0 0 0-12.263-4.085c-5.394-.217-10.615 1.964-14.316 5.978-3.639 3.99-5.438 9.41-5.438 16.342 0 6.932 1.866 12.46 5.638 16.45 3.732 3.943 8.909 6.11 14.276 5.979 9.544 0 16.502-5.284 18.101-14.217l3.999.34c-.716 5.046-3.314 9.614-7.251 12.747-9.854 7.024-23.164 6.094-31.991-2.234C366.253 71.395 364 65.103 364 57c0-8.103 2.186-14.422 6.665-19.066 4.552-4.656 10.798-7.163 17.235-6.918 5.376-.098 10.62 1.701 14.849 5.094zm29.216 11.899a16.554 16.554 0 0 1 12.323 4.92 16.354 16.354 0 0 1 4.689 12.351c.304 6.226-2.864 12.113-8.242 15.317a17.084 17.084 0 0 1-17.473 0c-5.378-3.204-8.546-9.09-8.242-15.317a16.765 16.765 0 0 1 4.784-12.555 16.704 16.704 0 0 1 12.161-4.716zm-9.501 7.068a14.048 14.048 0 0 0-3.729 10.243 14.286 14.286 0 0 0 3.729 10.296 12.949 12.949 0 0 0 9.501 3.774 12.72 12.72 0 0 0 9.435-3.774 14.048 14.048 0 0 0 3.781-10.296 13.81 13.81 0 0 0-3.781-10.243c-5.299-5.03-13.638-5.03-18.936 0zm82.063-3.311a13.608 13.608 0 0 1 3.462 9.636V82h-3.645V61.88c0-6.331-3.593-10.498-9.27-10.498a9.024 9.024 0 0 0-7.108 3.105 10.95 10.95 0 0 0-2.623 7.393V82h-3.71V61.88c0-6.265-3.646-10.498-9.18-10.498a9.219 9.219 0 0 0-7.172 3.105 10.95 10.95 0 0 0-2.623 7.393V82H459V48.608h3.462v5.733c2.004-4.045 6.167-6.523 10.634-6.33 4.85-.177 9.296 2.719 11.146 7.26 2.009-4.558 6.546-7.429 11.474-7.26a11.381 11.381 0 0 1 8.811 3.755zm41.923.034c3.046 3.178 4.55 7.428 4.55 12.9s-1.504 9.79-4.55 12.968c-2.993 3.161-7.125 4.875-11.391 4.725-5.976 0-10.462-2.838-12.424-6.966V99H519V47.618h3.452v6.613c2.08-4.318 6.63-7.224 12.607-7.224 4.276-.132 8.41 1.607 11.39 4.793zm-23.815 11.746v2.363c0 8.581 4.878 13.171 12.097 13.171 3.391.09 6.667-1.28 9.05-3.788 2.406-2.567 3.57-6.07 3.57-10.524 0-4.454-1.164-8.147-3.57-10.605-2.376-2.523-5.653-3.91-9.05-3.83-7.219 0-12.097 4.645-12.097 13.213zm52.307-15.539c4.549-.127 8.953 1.563 12.194 4.677 3.27 3.056 4.864 7.21 4.864 12.345.027 6.747-4.064 12.863-10.407 15.56-6.343 2.698-13.724 1.46-18.777-3.15-3.272-3.323-5.005-7.808-4.797-12.41-.222-4.585 1.515-9.054 4.797-12.345 3.226-3.095 7.602-4.783 12.126-4.677zm-9.527 6.95c-2.575 2.735-3.917 6.364-3.725 10.072-.18 3.722 1.16 7.362 3.725 10.125 2.518 2.46 5.964 3.802 9.527 3.71 3.547.107 6.978-1.238 9.46-3.71 2.643-2.726 4.04-6.378 3.873-10.125.197-3.723-1.179-7.363-3.806-10.072-5.312-4.946-13.674-4.946-18.987 0h-.067zm59.005-3.193a13.252 13.252 0 0 1 3.565 9.703V82h-3.63V61.878c0-6.265-3.903-10.499-9.576-10.499a9.715 9.715 0 0 0-7.312 3.106 10.656 10.656 0 0 0-2.837 7.393V82H601V48.605h3.5v5.668c1.548-3.425 5.49-6.265 10.864-6.265a11.823 11.823 0 0 1 9.056 3.756zM667 66.366h-27.084a12.584 12.584 0 0 0 3.534 9.128 11.86 11.86 0 0 0 8.597 3.312c5.762 0 9.705-2.608 10.944-7.198l3.68.261c-1.583 6.155-6.95 10.12-14.505 10.12a15.666 15.666 0 0 1-11.643-4.526c-3.007-3.051-4.514-7.202-4.523-12.453 0-5.216 1.516-9.402 4.457-12.454a15.373 15.373 0 0 1 11.55-4.538 14.003 14.003 0 0 1 10.945 4.408 16.355 16.355 0 0 1 3.956 11.606l.092 2.334zm-27.084-3.051h23.471c0-7.264-4.061-12.063-11.406-12.063-6.883-.039-11.801 4.486-12.065 12.063zm60.504-11.551a13.251 13.251 0 0 1 3.565 9.703V82h-3.63V61.878c0-6.265-3.903-10.499-9.576-10.499a9.716 9.716 0 0 0-7.3 3.106 10.601 10.601 0 0 0-2.849 7.393V82H677V48.605h3.5v5.668c1.548-3.425 5.504-6.265 10.864-6.265a11.798 11.798 0 0 1 9.056 3.756zM729 78.26v3.404a22.076 22.076 0 0 1-4.051.335c-5.55 0-8.89-3.27-8.89-10.2V51.2H710v-3.257h6.058V36h3.607v11.942h9.157v3.257h-9.157l-.127 19.93c0 5 2.02 7.466 6.058 7.466A26 26 0 0 0 729 78.26zm26.994-21.03-3.704.26c-.533-3.92-3.317-6.365-8.087-6.313-5.102 0-7.807 2.222-7.807 6.052.019.877.223 1.741.6 2.536a6.406 6.406 0 0 0 1.799 1.49c.52.262 2.251.72 2.837.915l1.732.393 1.852.392a28.971 28.971 0 0 1 8.94 3.307c1.937 1.378 3.007 3.645 2.824 5.987 0 6.235-4.77 9.751-12.19 9.751-7.155 0-11.924-3.386-12.79-9.36l3.717-.26c.733 4.221 3.997 6.43 9.14 6.43 5.142 0 8.42-2.143 8.42-6.3a4.35 4.35 0 0 0-2-4.104 27.583 27.583 0 0 0-7.62-2.47c-1.332-.328-2.198-.51-2.664-.576l-2.185-.654a17.212 17.212 0 0 1-2.198-.784 9.29 9.29 0 0 1-2.971-2.405 10.14 10.14 0 0 1-1-4.222c0-5.726 4.237-9.36 11.658-9.294 6.86-.065 10.911 3.503 11.697 9.228zM785.211 82h-3.395L761 33h4.332l18.208 43.027L801.695 33H806zm52.71.388h-3.392v-5.68c-1.931 4.035-6.058 6.508-10.479 6.277-7.295 0-12.05-5.308-12.05-13.27V49h3.589v20.25c0 6.277 3.445 10.232 9.169 10.232a8.646 8.646 0 0 0 6.968-3.04 11.076 11.076 0 0 0 2.62-7.39V49H838l-.079 33.388zM878 66.913h-27.105a13.15 13.15 0 0 0 3.538 9.393 11.7 11.7 0 0 0 8.608 3.409c5.77 0 9.718-2.684 10.959-7.407l3.683.268c-1.584 6.334-6.97 10.413-14.523 10.413a15.446 15.446 0 0 1-11.631-4.67c-3.01-3.14-4.52-7.412-4.529-12.815 0-5.368 1.518-9.675 4.463-12.815 3.03-3.152 7.233-4.85 11.565-4.67 4.134-.217 8.15 1.445 10.958 4.536 2.64 3.005 3.961 6.937 3.961 11.943l.053 2.415zm-27.105-3.14h23.5c0-7.475-4.066-12.413-11.42-12.413-6.905-.04-11.816 4.616-12.08 12.413z" fill="#22283F"/><path fill="url(#a)" opacity=".32" d="M24.417 23 22.1 27.236 19.797 23H16.1l6 11 6-11z" transform="translate(0 20)"/><path d="M58.221 35.783a1.561 1.561 0 0 0 0 2.229l14.97 15.83a9.34 9.34 0 0 0 2.577-8.743l-6.837-29.23a9.252 9.252 0 0 0-6.343-6.767L33.85.4a9.258 9.258 0 0 0-9.028 2.109L2.908 23.036A9.34 9.34 0 0 0 .238 31.9l6.81 29.243a9.252 9.252 0 0 0 6.343 6.754l28.738 8.716a9.352 9.352 0 0 0 9.028-2.11l7.919-7.42 5.435-5.085-14.984-15.79a1.59 1.59 0 0 0-2.243 0l-6.25 5.846c-.623.61-1.62.61-2.243 0l-6.023-6.34a1.561 1.561 0 0 1 .067-2.229l15.557-14.802a1.63 1.63 0 0 1 1.135-.427l12.366.32a1.576 1.576 0 0 1 1.042 2.67l-4.714 4.538zm-35.91 4.711-9.668-16.75h7.439l2.23 3.87 2.243-3.87h7.465l-9.708 16.75z" fill="url(#b)" transform="translate(0 20)"/></g></svg>